<svg width="89" height="44" viewBox="0 0 89 44" fill="none" xmlns="http://www.w3.org/2000/svg">
<path d="M9.10698 15.448C9.70498 13.698 12.123 13.645 12.832 15.289L12.892 15.449L13.699 17.809C13.8839 18.3502 14.1828 18.8455 14.5754 19.2614C14.968 19.6773 15.4453 20.0042 15.975 20.22L16.192 20.301L18.552 21.107C20.302 21.705 20.355 24.123 18.712 24.832L18.552 24.892L16.192 25.699C15.6506 25.8838 15.1551 26.1826 14.739 26.5753C14.3229 26.9679 13.9959 27.4452 13.78 27.975L13.699 28.191L12.893 30.552C12.295 32.302 9.87698 32.355 9.16898 30.712L9.10698 30.552L8.30098 28.192C8.11616 27.6506 7.81735 27.1551 7.42472 26.739C7.03209 26.3229 6.55478 25.9959 6.02498 25.78L5.80898 25.699L3.44898 24.893C1.69798 24.295 1.64498 21.877 3.28898 21.169L3.44898 21.107L5.80898 20.301C6.35022 20.1161 6.84549 19.8172 7.26141 19.4246C7.67732 19.0319 8.00419 18.5547 8.21998 18.025L8.30098 17.809L9.10698 15.448ZM19 12C19.1871 12 19.3704 12.0525 19.5291 12.1515C19.6879 12.2505 19.8157 12.392 19.898 12.56L19.946 12.677L20.296 13.703L21.323 14.053C21.5105 14.1167 21.6748 14.2346 21.7952 14.3918C21.9156 14.549 21.9866 14.7384 21.9993 14.936C22.0119 15.1336 21.9656 15.3305 21.8662 15.5018C21.7668 15.673 21.6188 15.8109 21.441 15.898L21.323 15.946L20.297 16.296L19.947 17.323C19.8832 17.5104 19.7652 17.6747 19.6079 17.795C19.4506 17.9153 19.2612 17.9862 19.0636 17.9987C18.866 18.0113 18.6692 17.9648 18.498 17.8654C18.3268 17.7659 18.189 17.6179 18.102 17.44L18.054 17.323L17.704 16.297L16.677 15.947C16.4895 15.8833 16.3251 15.7654 16.2048 15.6082C16.0844 15.451 16.0133 15.2616 16.0007 15.064C15.9881 14.8664 16.0344 14.6695 16.1338 14.4982C16.2332 14.327 16.3811 14.1891 16.559 14.102L16.677 14.054L17.703 13.704L18.053 12.677C18.1204 12.4794 18.248 12.3079 18.4178 12.1865C18.5876 12.0651 18.7912 11.9999 19 12Z" fill="black"/>
<path d="M37.2056 28H34.4045L38.6726 15.6364H42.0412L46.3033 28H43.5021L40.4052 18.4616H40.3086L37.2056 28ZM37.0305 23.1403H43.647V25.1808H37.0305V23.1403ZM50.3148 15.6364V28H47.7431V15.6364H50.3148ZM57.3071 18.7273V20.6591H51.7229V18.7273H57.3071ZM52.9907 16.5057H55.5624V25.1506C55.5624 25.388 55.5986 25.5732 55.6711 25.706C55.7435 25.8348 55.8441 25.9253 55.9729 25.9776C56.1057 26.0299 56.2587 26.0561 56.4317 26.0561C56.5525 26.0561 56.6732 26.046 56.7939 26.0259C56.9147 26.0018 57.0073 25.9837 57.0716 25.9716L57.4761 27.8853C57.3473 27.9255 57.1662 27.9718 56.9328 28.0241C56.6994 28.0805 56.4156 28.1147 56.0816 28.1268C55.4618 28.1509 54.9185 28.0684 54.4516 27.8793C53.9888 27.6901 53.6286 27.3963 53.371 26.9979C53.1134 26.5994 52.9867 26.0964 52.9907 25.4886V16.5057ZM63.0724 28.1811C62.1346 28.1811 61.3237 27.9819 60.6395 27.5835C59.9593 27.181 59.4341 26.6216 59.0638 25.9052C58.6936 25.1848 58.5084 24.3497 58.5084 23.3999C58.5084 22.442 58.6936 21.6049 59.0638 20.8885C59.4341 20.1681 59.9593 19.6087 60.6395 19.2102C61.3237 18.8078 62.1346 18.6065 63.0724 18.6065C64.0101 18.6065 64.819 18.8078 65.4992 19.2102C66.1834 19.6087 66.7106 20.1681 67.0809 20.8885C67.4511 21.6049 67.6363 22.442 67.6363 23.3999C67.6363 24.3497 67.4511 25.1848 67.0809 25.9052C66.7106 26.6216 66.1834 27.181 65.4992 27.5835C64.819 27.9819 64.0101 28.1811 63.0724 28.1811ZM63.0844 26.1889C63.511 26.1889 63.8672 26.0682 64.153 25.8267C64.4387 25.5812 64.654 25.2472 64.7989 24.8246C64.9478 24.402 65.0223 23.921 65.0223 23.3817C65.0223 22.8424 64.9478 22.3615 64.7989 21.9389C64.654 21.5163 64.4387 21.1823 64.153 20.9368C63.8672 20.6913 63.511 20.5685 63.0844 20.5685C62.6538 20.5685 62.2916 20.6913 61.9978 20.9368C61.708 21.1823 61.4887 21.5163 61.3398 21.9389C61.1949 22.3615 61.1224 22.8424 61.1224 23.3817C61.1224 23.921 61.1949 24.402 61.3398 24.8246C61.4887 25.2472 61.708 25.5812 61.9978 25.8267C62.2916 26.0682 62.6538 26.1889 63.0844 26.1889ZM71.8802 22.6392V28H69.3085V18.7273H71.7595V20.3633H71.8682C72.0734 19.824 72.4175 19.3974 72.9005 19.0835C73.3834 18.7655 73.969 18.6065 74.6572 18.6065C75.3012 18.6065 75.8626 18.7474 76.3415 19.0291C76.8205 19.3108 77.1927 19.7133 77.4584 20.2365C77.724 20.7557 77.8568 21.3755 77.8568 22.0959V28H75.2851V22.5547C75.2891 21.9872 75.1442 21.5445 74.8504 21.2266C74.5566 20.9046 74.1521 20.7436 73.637 20.7436C73.2909 20.7436 72.985 20.8181 72.7194 20.967C72.4578 21.1159 72.2525 21.3332 72.1036 21.619C71.9587 21.9007 71.8843 22.2408 71.8802 22.6392ZM82.5279 28.1751C81.9363 28.1751 81.409 28.0724 80.9462 27.8672C80.4834 27.6579 80.1171 27.35 79.8475 26.9435C79.5819 26.533 79.449 26.0219 79.449 25.4102C79.449 24.895 79.5436 24.4624 79.7328 24.1122C79.9219 23.7621 80.1795 23.4804 80.5055 23.267C80.8315 23.0537 81.2018 22.8928 81.6163 22.7841C82.0349 22.6754 82.4735 22.599 82.9324 22.5547C83.4717 22.4983 83.9063 22.446 84.2363 22.3977C84.5663 22.3454 84.8058 22.2689 84.9547 22.1683C85.1036 22.0677 85.1781 21.9188 85.1781 21.7216V21.6854C85.1781 21.303 85.0574 21.0072 84.8159 20.7979C84.5784 20.5887 84.2404 20.484 83.8017 20.484C83.3388 20.484 82.9706 20.5866 82.6969 20.7919C82.4232 20.9931 82.2421 21.2467 82.1536 21.5526L79.775 21.3594C79.8958 20.7959 80.1332 20.3089 80.4874 19.8984C80.8416 19.4839 81.2984 19.166 81.8578 18.9446C82.4212 18.7192 83.0732 18.6065 83.8137 18.6065C84.3289 18.6065 84.8219 18.6669 85.2928 18.7876C85.7677 18.9084 86.1883 19.0955 86.5545 19.3491C86.9248 19.6026 87.2166 19.9286 87.4299 20.3271C87.6432 20.7215 87.7498 21.1944 87.7498 21.7457V28H85.3109V26.7141H85.2385C85.0895 27.0039 84.8903 27.2595 84.6408 27.4808C84.3913 27.6982 84.0914 27.8692 83.7413 27.994C83.3912 28.1147 82.9867 28.1751 82.5279 28.1751ZM83.2644 26.4002C83.6427 26.4002 83.9767 26.3258 84.2665 26.1768C84.5563 26.0239 84.7837 25.8187 84.9487 25.5611C85.1137 25.3035 85.1962 25.0117 85.1962 24.6857V23.7017C85.1157 23.754 85.005 23.8023 84.8642 23.8466C84.7273 23.8868 84.5724 23.9251 84.3993 23.9613C84.2263 23.9935 84.0532 24.0237 83.8801 24.0518C83.7071 24.076 83.5501 24.0981 83.4093 24.1183C83.1074 24.1625 82.8438 24.233 82.6184 24.3295C82.3931 24.4261 82.218 24.5569 82.0932 24.7219C81.9685 24.8829 81.9061 25.0842 81.9061 25.3256C81.9061 25.6758 82.0328 25.9434 82.2864 26.1286C82.544 26.3097 82.87 26.4002 83.2644 26.4002Z" fill="#0A1B39"/>
</svg>
